# xmcd CD database file
#
# Track frame offsets:
#	150
#	15947
#	29985
#	51972
#	72987
#	90617
#	110895
#	132590
#	148122
#	172730
#
# Disc length: 2541 seconds
#
# Revision: 3
# Processed by: cddbd v1.4PL0 Copyright (c) Steve Scherf et al.
# Submitted via: CDex 1.50Beta7
#
DISCID=9109eb0a
DTITLE=Hellen Carvalho - Algo
DYEAR=2000
DGENRE=jazz-rock
TTITLE0=Algo
TTITLE1=Amargo
TTITLE2=Cine The End
TTITLE3=Nao Ligon
TTITLE4=Nosso Amor
TTITLE5=Unico
TTITLE6=E Tao Bom
TTITLE7=Neura
TTITLE8=Dry Blues
TTITLE9=Jogo A Tres
EXTD=YEAR: 2000
EXTT0=
EXTT1=
EXTT2=
EXTT3=
EXTT4=
EXTT5=
EXTT6=
EXTT7=
EXTT8=
EXTT9=
PLAYORDER=
